<?xml version="1.0" encoding="UTF-8" standalone="no"?>
<!DOCTYPE svg PUBLIC "-//W3C//DTD SVG 1.1//EN"
 "http://www.w3.org/Graphics/SVG/1.1/DTD/svg11.dtd">
<!-- Generated by graphviz version 2.38.0 (20140413.2041)
 -->
<!-- Title: dependencies Pages: 1 -->
<svg width="3037pt" height="284pt"
 viewBox="0.00 0.00 3037.00 284.00" xmlns="http://www.w3.org/2000/svg" xmlns:xlink="http://www.w3.org/1999/xlink">
<g id="graph0" class="graph" transform="scale(1 1) rotate(0) translate(4 280)">
<title>dependencies</title>
<polygon fill="white" stroke="none" points="-4,4 -4,-280 3033,-280 3033,4 -4,4"/>
<text text-anchor="start" x="1493.51" y="-42.4" font-family="sans-serif" font-weight="bold" font-size="14.00">Legend</text>
<polygon fill="#ffffb3" stroke="none" points="1280.5,-10 1280.5,-30 1300.5,-30 1300.5,-10 1280.5,-10"/>
<text text-anchor="start" x="1304.13" y="-15.4" font-family="sans-serif" font-size="14.00"> &#160;Declarations</text>
<polygon fill="#8dd3c7" stroke="none" points="1393.5,-10 1393.5,-30 1413.5,-30 1413.5,-10 1393.5,-10"/>
<text text-anchor="start" x="1417.23" y="-15.4" font-family="sans-serif" font-size="14.00"> &#160;Module</text>
<polygon fill="#80b1d3" stroke="none" points="1479.5,-10 1479.5,-30 1499.5,-30 1499.5,-10 1479.5,-10"/>
<text text-anchor="start" x="1503.28" y="-15.4" font-family="sans-serif" font-size="14.00"> &#160;Bootstrap</text>
<polygon fill="#fdb462" stroke="none" points="1576.5,-10 1576.5,-30 1596.5,-30 1596.5,-10 1576.5,-10"/>
<text text-anchor="start" x="1600.17" y="-15.4" font-family="sans-serif" font-size="14.00"> &#160;Providers</text>
<polygon fill="#fb8072" stroke="none" points="1672.5,-10 1672.5,-30 1692.5,-30 1692.5,-10 1672.5,-10"/>
<text text-anchor="start" x="1696.23" y="-15.4" font-family="sans-serif" font-size="14.00"> &#160;Exports</text>
<g id="clust1" class="cluster"><title>cluster_AppModule</title>
<polygon fill="none" stroke="black" stroke-dasharray="1,5" points="8,-70 8,-268 3021,-268 3021,-70 8,-70"/>
</g>
<g id="clust2" class="cluster"><title>cluster_AppModule_declarations</title>
<polygon fill="none" stroke="black" points="1180,-78 1180,-130 3013,-130 3013,-78 1180,-78"/>
</g>
<g id="clust16" class="cluster"><title>cluster_AppModule_imports</title>
<polygon fill="none" stroke="black" points="468,-78 468,-130 1172,-130 1172,-78 468,-78"/>
</g>
<g id="clust18" class="cluster"><title>cluster_AppModule_bootstrap</title>
<polygon fill="none" stroke="black" points="1478,-208 1478,-260 1602,-260 1602,-208 1478,-208"/>
</g>
<g id="clust19" class="cluster"><title>cluster_AppModule_providers</title>
<polygon fill="none" stroke="black" points="16,-78 16,-130 460,-130 460,-78 16,-78"/>
</g>
<!-- AppComponent -->
<g id="node1" class="node"><title>AppComponent</title>
<polygon fill="#ffffb3" stroke="black" points="3004.94,-122 2899.06,-122 2899.06,-86 3004.94,-86 3004.94,-122"/>
<text text-anchor="middle" x="2952" y="-99.8" font-family="Times,serif" font-size="14.00">AppComponent</text>
</g>
<!-- AppModule -->
<g id="node14" class="node"><title>AppModule</title>
<polygon fill="#8dd3c7" stroke="black" points="1581.66,-187 1578.66,-191 1557.66,-191 1554.66,-187 1498.34,-187 1498.34,-151 1581.66,-151 1581.66,-187"/>
<text text-anchor="middle" x="1540" y="-164.8" font-family="Times,serif" font-size="14.00">AppModule</text>
</g>
<!-- AppComponent&#45;&gt;AppModule -->
<g id="edge1" class="edge"><title>AppComponent&#45;&gt;AppModule</title>
<path fill="none" stroke="black" d="M2952,-122.153C2952,-145.757 2952,-184 2952,-184 2952,-184 1591.88,-184 1591.88,-184"/>
<polygon fill="black" stroke="black" points="1591.88,-180.5 1581.88,-184 1591.88,-187.5 1591.88,-180.5"/>
</g>
<!-- ScreenResize -->
<g id="node2" class="node"><title>ScreenResize</title>
<polygon fill="#ffffb3" stroke="black" points="2881.9,-122 2790.1,-122 2790.1,-86 2881.9,-86 2881.9,-122"/>
<text text-anchor="middle" x="2836" y="-99.8" font-family="Times,serif" font-size="14.00">ScreenResize</text>
</g>
<!-- ScreenResize&#45;&gt;AppModule -->
<g id="edge2" class="edge"><title>ScreenResize&#45;&gt;AppModule</title>
<path fill="none" stroke="black" d="M2836,-122.248C2836,-145.018 2836,-181 2836,-181 2836,-181 1592.02,-181 1592.02,-181"/>
<polygon fill="black" stroke="black" points="1592.02,-177.5 1582.02,-181 1592.02,-184.5 1592.02,-177.5"/>
</g>
<!-- ImageMapResize -->
<g id="node3" class="node"><title>ImageMapResize</title>
<polygon fill="#ffffb3" stroke="black" points="2771.96,-122 2658.04,-122 2658.04,-86 2771.96,-86 2771.96,-122"/>
<text text-anchor="middle" x="2715" y="-99.8" font-family="Times,serif" font-size="14.00">ImageMapResize</text>
</g>
<!-- ImageMapResize&#45;&gt;AppModule -->
<g id="edge3" class="edge"><title>ImageMapResize&#45;&gt;AppModule</title>
<path fill="none" stroke="black" d="M2715,-122.292C2715,-144.206 2715,-178 2715,-178 2715,-178 1591.82,-178 1591.82,-178"/>
<polygon fill="black" stroke="black" points="1591.82,-174.5 1581.82,-178 1591.82,-181.5 1591.82,-174.5"/>
</g>
<!-- MapComponent -->
<g id="node4" class="node"><title>MapComponent</title>
<polygon fill="#ffffb3" stroke="black" points="2640.49,-122 2533.51,-122 2533.51,-86 2640.49,-86 2640.49,-122"/>
<text text-anchor="middle" x="2587" y="-99.8" font-family="Times,serif" font-size="14.00">MapComponent</text>
</g>
<!-- MapComponent&#45;&gt;AppModule -->
<g id="edge4" class="edge"><title>MapComponent&#45;&gt;AppModule</title>
<path fill="none" stroke="black" d="M2587,-122.027C2587,-142.767 2587,-174 2587,-174 2587,-174 1591.69,-174 1591.69,-174"/>
<polygon fill="black" stroke="black" points="1591.69,-170.5 1581.69,-174 1591.69,-177.5 1591.69,-170.5"/>
</g>
<!-- SidebarComponent -->
<g id="node5" class="node"><title>SidebarComponent</title>
<polygon fill="#ffffb3" stroke="black" points="2515.1,-122 2390.9,-122 2390.9,-86 2515.1,-86 2515.1,-122"/>
<text text-anchor="middle" x="2453" y="-99.8" font-family="Times,serif" font-size="14.00">SidebarComponent</text>
</g>
<!-- SidebarComponent&#45;&gt;AppModule -->
<g id="edge5" class="edge"><title>SidebarComponent&#45;&gt;AppModule</title>
<path fill="none" stroke="black" d="M2453,-122.308C2453,-142.146 2453,-171 2453,-171 2453,-171 1591.9,-171 1591.9,-171"/>
<polygon fill="black" stroke="black" points="1591.9,-167.5 1581.9,-171 1591.9,-174.5 1591.9,-167.5"/>
</g>
<!-- AsymmetryComponent -->
<g id="node6" class="node"><title>AsymmetryComponent</title>
<polygon fill="#ffffb3" stroke="black" points="2372.93,-122 2225.07,-122 2225.07,-86 2372.93,-86 2372.93,-122"/>
<text text-anchor="middle" x="2299" y="-99.8" font-family="Times,serif" font-size="14.00">AsymmetryComponent</text>
</g>
<!-- AsymmetryComponent&#45;&gt;AppModule -->
<g id="edge6" class="edge"><title>AsymmetryComponent&#45;&gt;AppModule</title>
<path fill="none" stroke="black" d="M2299,-122.169C2299,-141.09 2299,-168 2299,-168 2299,-168 1591.89,-168 1591.89,-168"/>
<polygon fill="black" stroke="black" points="1591.89,-164.5 1581.89,-168 1591.89,-171.5 1591.89,-164.5"/>
</g>
<!-- CalcificationComponent -->
<g id="node7" class="node"><title>CalcificationComponent</title>
<polygon fill="#ffffb3" stroke="black" points="2206.64,-122 2053.36,-122 2053.36,-86 2206.64,-86 2206.64,-122"/>
<text text-anchor="middle" x="2130" y="-99.8" font-family="Times,serif" font-size="14.00">CalcificationComponent</text>
</g>
<!-- CalcificationComponent&#45;&gt;AppModule -->
<g id="edge7" class="edge"><title>CalcificationComponent&#45;&gt;AppModule</title>
<path fill="none" stroke="black" d="M2130,-122.302C2130,-140.27 2130,-165 2130,-165 2130,-165 1591.96,-165 1591.96,-165"/>
<polygon fill="black" stroke="black" points="1591.96,-161.5 1581.96,-165 1591.96,-168.5 1591.96,-161.5"/>
</g>
<!-- DistortionComponent -->
<g id="node8" class="node"><title>DistortionComponent</title>
<polygon fill="#ffffb3" stroke="black" points="2035.11,-122 1896.89,-122 1896.89,-86 2035.11,-86 2035.11,-122"/>
<text text-anchor="middle" x="1966" y="-99.8" font-family="Times,serif" font-size="14.00">DistortionComponent</text>
</g>
<!-- DistortionComponent&#45;&gt;AppModule -->
<g id="edge8" class="edge"><title>DistortionComponent&#45;&gt;AppModule</title>
<path fill="none" stroke="black" d="M1966,-122.035C1966,-138.734 1966,-161 1966,-161 1966,-161 1592.01,-161 1592.01,-161"/>
<polygon fill="black" stroke="black" points="1592.01,-157.5 1582.01,-161 1592.01,-164.5 1592.01,-157.5"/>
</g>
<!-- MassComponent -->
<g id="node9" class="node"><title>MassComponent</title>
<polygon fill="#ffffb3" stroke="black" points="1879.38,-122 1768.62,-122 1768.62,-86 1879.38,-86 1879.38,-122"/>
<text text-anchor="middle" x="1824" y="-99.8" font-family="Times,serif" font-size="14.00">MassComponent</text>
</g>
<!-- MassComponent&#45;&gt;AppModule -->
<g id="edge9" class="edge"><title>MassComponent&#45;&gt;AppModule</title>
<path fill="none" stroke="black" d="M1824,-122.282C1824,-137.948 1824,-158 1824,-158 1824,-158 1591.91,-158 1591.91,-158"/>
<polygon fill="black" stroke="black" points="1591.91,-154.5 1581.91,-158 1591.91,-161.5 1591.91,-154.5"/>
</g>
<!-- OtherComponent -->
<g id="node10" class="node"><title>OtherComponent</title>
<polygon fill="#ffffb3" stroke="black" points="1750.7,-122 1637.3,-122 1637.3,-86 1750.7,-86 1750.7,-122"/>
<text text-anchor="middle" x="1694" y="-99.8" font-family="Times,serif" font-size="14.00">OtherComponent</text>
</g>
<!-- OtherComponent&#45;&gt;AppModule -->
<g id="edge10" class="edge"><title>OtherComponent&#45;&gt;AppModule</title>
<path fill="none" stroke="black" d="M1694,-122.124C1694,-136.783 1694,-155 1694,-155 1694,-155 1591.67,-155 1591.67,-155"/>
<polygon fill="black" stroke="black" points="1591.67,-151.5 1581.67,-155 1591.67,-158.5 1591.67,-151.5"/>
</g>
<!-- ClassificationComponent -->
<g id="node11" class="node"><title>ClassificationComponent</title>
<polygon fill="#ffffb3" stroke="black" points="1619.32,-122 1460.68,-122 1460.68,-86 1619.32,-86 1619.32,-122"/>
<text text-anchor="middle" x="1540" y="-99.8" font-family="Times,serif" font-size="14.00">ClassificationComponent</text>
</g>
<!-- ClassificationComponent&#45;&gt;AppModule -->
<g id="edge11" class="edge"><title>ClassificationComponent&#45;&gt;AppModule</title>
<path fill="none" stroke="black" d="M1540,-122.106C1540,-122.106 1540,-140.991 1540,-140.991"/>
<polygon fill="black" stroke="black" points="1536.5,-140.991 1540,-150.991 1543.5,-140.991 1536.5,-140.991"/>
</g>
<!-- LegendComponent -->
<g id="node12" class="node"><title>LegendComponent</title>
<polygon fill="#ffffb3" stroke="black" points="1442.81,-122 1319.19,-122 1319.19,-86 1442.81,-86 1442.81,-122"/>
<text text-anchor="middle" x="1381" y="-99.8" font-family="Times,serif" font-size="14.00">LegendComponent</text>
</g>
<!-- LegendComponent&#45;&gt;AppModule -->
<g id="edge12" class="edge"><title>LegendComponent&#45;&gt;AppModule</title>
<path fill="none" stroke="black" d="M1381,-122.124C1381,-136.783 1381,-155 1381,-155 1381,-155 1488.22,-155 1488.22,-155"/>
<polygon fill="black" stroke="black" points="1488.22,-158.5 1498.22,-155 1488.22,-151.5 1488.22,-158.5"/>
</g>
<!-- TableComponent -->
<g id="node13" class="node"><title>TableComponent</title>
<polygon fill="#ffffb3" stroke="black" points="1301.7,-122 1188.3,-122 1188.3,-86 1301.7,-86 1301.7,-122"/>
<text text-anchor="middle" x="1245" y="-99.8" font-family="Times,serif" font-size="14.00">TableComponent</text>
</g>
<!-- TableComponent&#45;&gt;AppModule -->
<g id="edge13" class="edge"><title>TableComponent&#45;&gt;AppModule</title>
<path fill="none" stroke="black" d="M1245,-122.282C1245,-137.948 1245,-158 1245,-158 1245,-158 1488.05,-158 1488.05,-158"/>
<polygon fill="black" stroke="black" points="1488.05,-161.5 1498.05,-158 1488.05,-154.5 1488.05,-161.5"/>
</g>
<!-- AppComponent  -->
<g id="node20" class="node"><title>AppComponent </title>
<polygon fill="#80b1d3" stroke="black" points="1594.44,-252 1485.56,-252 1485.56,-216 1594.44,-216 1594.44,-252"/>
<text text-anchor="middle" x="1540" y="-229.8" font-family="Times,serif" font-size="14.00">AppComponent </text>
</g>
<!-- AppModule&#45;&gt;AppComponent  -->
<g id="edge19" class="edge"><title>AppModule&#45;&gt;AppComponent </title>
<path fill="none" stroke="black" stroke-dasharray="1,5" d="M1540,-187.106C1540,-187.106 1540,-205.991 1540,-205.991"/>
<polygon fill="black" stroke="black" points="1536.5,-205.991 1540,-215.991 1543.5,-205.991 1536.5,-205.991"/>
</g>
<!-- BrowserModule -->
<g id="node15" class="node"><title>BrowserModule</title>
<polygon fill="#8dd3c7" stroke="black" points="1164.47,-122 1161.47,-126 1140.47,-126 1137.47,-122 1057.53,-122 1057.53,-86 1164.47,-86 1164.47,-122"/>
<text text-anchor="middle" x="1111" y="-99.8" font-family="Times,serif" font-size="14.00">BrowserModule</text>
</g>
<!-- BrowserModule&#45;&gt;AppModule -->
<g id="edge14" class="edge"><title>BrowserModule&#45;&gt;AppModule</title>
<path fill="none" stroke="black" d="M1111,-122.035C1111,-138.734 1111,-161 1111,-161 1111,-161 1488.08,-161 1488.08,-161"/>
<polygon fill="black" stroke="black" points="1488.08,-164.5 1498.08,-161 1488.08,-157.5 1488.08,-164.5"/>
</g>
<!-- FormsModule -->
<g id="node16" class="node"><title>FormsModule</title>
<polygon fill="#8dd3c7" stroke="black" points="1039.83,-122 1036.83,-126 1015.83,-126 1012.83,-122 944.171,-122 944.171,-86 1039.83,-86 1039.83,-122"/>
<text text-anchor="middle" x="992" y="-99.8" font-family="Times,serif" font-size="14.00">FormsModule</text>
</g>
<!-- FormsModule&#45;&gt;AppModule -->
<g id="edge15" class="edge"><title>FormsModule&#45;&gt;AppModule</title>
<path fill="none" stroke="black" d="M992,-122.302C992,-140.27 992,-165 992,-165 992,-165 1487.91,-165 1487.91,-165"/>
<polygon fill="black" stroke="black" points="1487.91,-168.5 1497.91,-165 1487.91,-161.5 1487.91,-168.5"/>
</g>
<!-- HttpModule -->
<g id="node17" class="node"><title>HttpModule</title>
<polygon fill="#8dd3c7" stroke="black" points="926.439,-122 923.439,-126 902.439,-126 899.439,-122 841.561,-122 841.561,-86 926.439,-86 926.439,-122"/>
<text text-anchor="middle" x="884" y="-99.8" font-family="Times,serif" font-size="14.00">HttpModule</text>
</g>
<!-- HttpModule&#45;&gt;AppModule -->
<g id="edge16" class="edge"><title>HttpModule&#45;&gt;AppModule</title>
<path fill="none" stroke="black" d="M884,-122.169C884,-141.09 884,-168 884,-168 884,-168 1488.22,-168 1488.22,-168"/>
<polygon fill="black" stroke="black" points="1488.22,-171.5 1498.22,-168 1488.22,-164.5 1488.22,-171.5"/>
</g>
<!-- Ng2BootstrapModule -->
<g id="node18" class="node"><title>Ng2BootstrapModule</title>
<polygon fill="#8dd3c7" stroke="black" points="824.094,-122 821.094,-126 800.094,-126 797.094,-122 685.906,-122 685.906,-86 824.094,-86 824.094,-122"/>
<text text-anchor="middle" x="755" y="-99.8" font-family="Times,serif" font-size="14.00">Ng2BootstrapModule</text>
</g>
<!-- Ng2BootstrapModule&#45;&gt;AppModule -->
<g id="edge17" class="edge"><title>Ng2BootstrapModule&#45;&gt;AppModule</title>
<path fill="none" stroke="black" d="M755,-122.308C755,-142.146 755,-171 755,-171 755,-171 1488.07,-171 1488.07,-171"/>
<polygon fill="black" stroke="black" points="1488.07,-174.5 1498.07,-171 1488.07,-167.5 1488.07,-174.5"/>
</g>
<!-- TranslateModule.forRoot(args) -->
<g id="node19" class="node"><title>TranslateModule.forRoot(args)</title>
<polygon fill="#8dd3c7" stroke="black" points="667.822,-122 664.822,-126 643.822,-126 640.822,-122 476.178,-122 476.178,-86 667.822,-86 667.822,-122"/>
<text text-anchor="middle" x="572" y="-99.8" font-family="Times,serif" font-size="14.00">TranslateModule.forRoot(args)</text>
</g>
<!-- TranslateModule.forRoot(args)&#45;&gt;AppModule -->
<g id="edge18" class="edge"><title>TranslateModule.forRoot(args)&#45;&gt;AppModule</title>
<path fill="none" stroke="black" d="M572,-122.027C572,-142.767 572,-174 572,-174 572,-174 1488.1,-174 1488.1,-174"/>
<polygon fill="black" stroke="black" points="1488.1,-177.5 1498.1,-174 1488.1,-170.5 1488.1,-177.5"/>
</g>
<!-- DataService -->
<g id="node21" class="node"><title>DataService</title>
<ellipse fill="#fdb462" stroke="black" cx="394" cy="-104" rx="58.4415" ry="18"/>
<text text-anchor="middle" x="394" y="-99.8" font-family="Times,serif" font-size="14.00">DataService</text>
</g>
<!-- DataService&#45;&gt;AppModule -->
<g id="edge20" class="edge"><title>DataService&#45;&gt;AppModule</title>
<path fill="none" stroke="black" d="M394,-122.292C394,-144.206 394,-178 394,-178 394,-178 1488.2,-178 1488.2,-178"/>
<polygon fill="black" stroke="black" points="1488.2,-181.5 1498.2,-178 1488.2,-174.5 1488.2,-181.5"/>
</g>
<!-- PageController -->
<g id="node22" class="node"><title>PageController</title>
<ellipse fill="#fdb462" stroke="black" cx="248" cy="-104" rx="69.4993" ry="18"/>
<text text-anchor="middle" x="248" y="-99.8" font-family="Times,serif" font-size="14.00">PageController</text>
</g>
<!-- PageController&#45;&gt;AppModule -->
<g id="edge21" class="edge"><title>PageController&#45;&gt;AppModule</title>
<path fill="none" stroke="black" d="M248,-122.248C248,-145.018 248,-181 248,-181 248,-181 1488.11,-181 1488.11,-181"/>
<polygon fill="black" stroke="black" points="1488.11,-184.5 1498.11,-181 1488.11,-177.5 1488.11,-184.5"/>
</g>
<!-- HotkeyService -->
<g id="node23" class="node"><title>HotkeyService</title>
<ellipse fill="#fdb462" stroke="black" cx="92" cy="-104" rx="68.3382" ry="18"/>
<text text-anchor="middle" x="92" y="-99.8" font-family="Times,serif" font-size="14.00">HotkeyService</text>
</g>
<!-- HotkeyService&#45;&gt;AppModule -->
<g id="edge22" class="edge"><title>HotkeyService&#45;&gt;AppModule</title>
<path fill="none" stroke="black" d="M92,-122.153C92,-145.757 92,-184 92,-184 92,-184 1488.23,-184 1488.23,-184"/>
<polygon fill="black" stroke="black" points="1488.23,-187.5 1498.23,-184 1488.23,-180.5 1488.23,-187.5"/>
</g>
</g>
</svg>
